<?xml version="1.0" encoding="utf-8"?>
<!-- Generator: Adobe Illustrator 23.0.1, SVG Export Plug-In . SVG Version: 6.00 Build 0)  -->
<svg version="1.1" id="Layer_1" xmlns="http://www.w3.org/2000/svg" xmlns:xlink="http://www.w3.org/1999/xlink" x="0px" y="0px"
	 viewBox="0 0 512 150" style="enable-background:new 0 0 512 282;" xml:space="preserve">
<style type="text/css">
	.st0{fill:#FFDEA1;}
	.st1{fill:#333333;}
	.st2{fill:#999999;}
	.st3{fill:url(#SVGID_1_);}
	.st4{fill:#FFBD42;}
	.st5{fill:url(#SVGID_2_);}
</style>
<g>
	<path class="st0" d="M22,121.8c31.9-14.6,70-44.6,89.1-72.6c1.4-2.1,4.5-2.2,6.1-0.3c33.5,40.9,96.8,70.3,155.8,76.6H22.8
		C20.8,125.5,20.1,122.6,22,121.8z"/>
	<linearGradient id="SVGID_1_" gradientUnits="userSpaceOnUse" x1="185.3998" y1="148.9356" x2="28.1566" y2="51.2889">
		<stop  offset="0" style="stop-color:#FFFFFF;stop-opacity:0.25"/>
		<stop  offset="1" style="stop-color:#FFFFFF;stop-opacity:0"/>
	</linearGradient>
	<path class="st3" d="M22,121.8c31.9-14.6,70-44.6,89.1-72.6c1.4-2.1,4.5-2.2,6.1-0.3c33.5,40.9,96.8,70.3,155.8,76.6H22.8
		C20.8,125.5,20.1,122.6,22,121.8z"/>
	<path class="st4" d="M22.8,125.5c122.7-0.9,257.5-53,326.2-115.9c1.9-1.7,4.9-1.1,6,1.2c21,43.3,84.2,92.3,133.6,111
		c2,0.8,1.5,3.8-0.7,3.8H22.8z"/>
	
	
</g>

</svg>
